<svg width="961" height="240" viewBox="0 0 961 240" fill="none" xmlns="http://www.w3.org/2000/svg">
    <path d="M120 0L223.923 60V180L120 240L16.0771 180V60L120 0Z" fill="#87CCE8"/>
    <path d="M98.5 129.5L78 166.5C84.8333 164.5 103.3 160.4 122.5 160C141.7 159.6 159.167 164.167 165.5 166.5L143 129.5V56.5C140.333 59.5 132 65.6 120 66C108 66.4 100.667 59.8333 98.5 56.5V129.5Z" fill="#E1F3FA"/>
    <ellipse cx="121" cy="55.5" rx="22" ry="9.5" fill="#B5E1F1"/>
    <path d="M166 172C166 178.075 145.629 183 120.5 183C95.371 183 75 178.075 75 172C75 165.925 95.371 161 120.5 161C145.629 161 166 165.925 166 172Z" fill="#B5E1F1"/>
    <path d="M183.5 198.5C185.5 201 177.643 204.005 170.5 207C147.562 220.582 128 232 119.64 233C111.5 233 97.5001 220.918 81.0002 214C79.7945 213.494 78.4035 212.71 76.8624 211.833L70.5001 208.5C63.6485 205.487 56.5877 202.667 59.0001 198.5C67.1385 184.442 66.7652 183.256 73.281 172H74.0115C74.0115 178.131 94.4401 183.102 119.64 183.102C144.84 183.102 165.269 178.131 165.269 172H166.719L183.5 198.5Z" fill="#87CCE8"/>
    <path d="M99 55.5L98.9345 128.692L57.5 199M99 55.5C99 60.7467 108.85 65 121 65C133.15 65 143 60.7467 143 55.5M99 55.5C99 50.2533 108.85 46 121 46C133.15 46 143 50.2533 143 55.5M143 55.5L143.062 129.588L183 199M120.64 183.102C95.4398 183.102 75.0112 178.131 75.0112 172M166 172C166 178.075 145.629 183 120.5 183C95.371 183 74.9999 178.075 74.9999 172C74.9999 165.925 95.371 161 120.5 161C145.629 161 166 165.925 166 172Z" stroke="#001A72" stroke-width="8"/>
    <path fill-rule="evenodd" clip-rule="evenodd" d="M119.923 9.2376L24 64.6188V175.381L119.923 230.762L215.846 175.381V64.6188L119.923 9.2376ZM223.846 60L119.923 0L16 60V180L119.923 240L223.846 180V60Z" fill="white"/>
    <path d="M160.139 60.7174C160.805 59.0291 163.195 59.0291 163.86 60.7174L171.864 81.0096C172.067 81.525 172.475 81.933 172.99 82.1363L193.283 90.1394C194.971 90.8053 194.971 93.1946 193.283 93.8605L172.99 101.864C172.475 102.067 172.067 102.475 171.864 102.99L163.86 123.283C163.195 124.971 160.805 124.971 160.139 123.283L152.136 102.99C151.933 102.475 151.525 102.067 151.01 101.864L130.717 93.8605C129.029 93.1946 129.029 90.8053 130.717 90.1394L151.01 82.1363C151.525 81.933 151.933 81.525 152.136 81.0096L160.139 60.7174Z" fill="#87CCE8"/>
    <path fill-rule="evenodd" clip-rule="evenodd" d="M156.418 59.2498C158.416 54.1849 165.584 54.1849 167.582 59.2498L175.266 78.7339L194.75 86.4184C199.815 88.4159 199.815 95.584 194.75 97.5815L175.266 105.266L167.582 124.75C165.584 129.815 158.416 129.815 156.418 124.75L148.734 105.266L129.25 97.5815C124.185 95.584 124.185 88.4159 129.25 86.4184L148.734 78.7339L156.418 59.2498ZM162 66.9024L155.857 82.4771C155.248 84.0235 154.023 85.2475 152.477 85.8574L136.902 92L152.477 98.1426C154.023 98.7524 155.248 99.9765 155.857 101.523L162 117.098L168.143 101.523C168.752 99.9765 169.976 98.7524 171.523 98.1425L187.098 92L171.523 85.8574C169.976 85.2475 168.752 84.0235 168.143 82.4771L162 66.9024Z" fill="#001A72"/>
    <path d="M72.1394 81.7174C72.8053 80.0291 75.1946 80.0291 75.8605 81.7174L83.8636 102.01C84.0669 102.525 84.4749 102.933 84.9903 103.136L105.283 111.139C106.971 111.805 106.971 114.195 105.283 114.86L84.9904 122.864C84.4749 123.067 84.0669 123.475 83.8636 123.99L75.8605 144.283C75.1946 145.971 72.8053 145.971 72.1394 144.283L64.1363 123.99C63.933 123.475 63.525 123.067 63.0096 122.864L42.7174 114.86C41.0291 114.195 41.0291 111.805 42.7174 111.139L63.0096 103.136C63.525 102.933 63.933 102.525 64.1363 102.01L72.1394 81.7174Z" fill="#87CCE8"/>
    <path fill-rule="evenodd" clip-rule="evenodd" d="M68.4184 80.2498C70.4159 75.1849 77.584 75.1849 79.5815 80.2498L87.266 99.7339L106.75 107.418C111.815 109.416 111.815 116.584 106.75 118.582L87.266 126.266L79.5816 145.75C77.584 150.815 70.4159 150.815 68.4184 145.75L60.734 126.266L41.2498 118.582C36.185 116.584 36.185 109.416 41.2498 107.418L60.7339 99.7339L68.4184 80.2498ZM74 87.9024L67.8574 103.477C67.2475 105.023 66.0235 106.248 64.4771 106.857L48.9024 113L64.4771 119.143C66.0235 119.752 67.2475 120.976 67.8574 122.523L74 138.098L80.1425 122.523C80.7524 120.976 81.9765 119.752 83.5228 119.143L99.0975 113L83.5228 106.857C81.9764 106.247 80.7524 105.023 80.1425 103.477L74 87.9024Z" fill="#001A72"/>
    <path d="M296 162V78H330.56C335.84 78 340.48 79.08 344.48 81.24C348.56 83.32 351.72 86.28 353.96 90.12C356.28 93.96 357.44 98.52 357.44 103.8V105.48C357.44 110.68 356.24 115.24 353.84 119.16C351.52 123 348.32 126 344.24 128.16C340.24 130.24 335.68 131.28 330.56 131.28H311.84V162H296ZM311.84 116.88H329C332.76 116.88 335.8 115.84 338.12 113.76C340.44 111.68 341.6 108.84 341.6 105.24V104.04C341.6 100.44 340.44 97.6 338.12 95.52C335.8 93.44 332.76 92.4 329 92.4H311.84V116.88Z" fill="white"/>
    <path d="M370.822 162V78H407.302C412.582 78 417.182 78.92 421.102 80.76C425.022 82.6 428.062 85.2 430.222 88.56C432.382 91.92 433.462 95.88 433.462 100.44V101.88C433.462 106.92 432.262 111 429.862 114.12C427.462 117.24 424.502 119.52 420.982 120.96V123.12C424.182 123.28 426.662 124.4 428.422 126.48C430.182 128.48 431.062 131.16 431.062 134.52V162H415.222V136.8C415.222 134.88 414.702 133.32 413.662 132.12C412.702 130.92 411.062 130.32 408.742 130.32H386.662V162H370.822ZM386.662 115.92H405.622C409.382 115.92 412.302 114.92 414.382 112.92C416.542 110.84 417.622 108.12 417.622 104.76V103.56C417.622 100.2 416.582 97.52 414.502 95.52C412.422 93.44 409.462 92.4 405.622 92.4H386.662V115.92Z" fill="white"/>
    <path d="M481.682 163.68C471.122 163.68 462.722 160.8 456.482 155.04C450.242 149.2 447.122 140.88 447.122 130.08V109.92C447.122 99.12 450.242 90.84 456.482 85.08C462.722 79.24 471.122 76.32 481.682 76.32C492.242 76.32 500.642 79.24 506.882 85.08C513.122 90.84 516.242 99.12 516.242 109.92V130.08C516.242 140.88 513.122 149.2 506.882 155.04C500.642 160.8 492.242 163.68 481.682 163.68ZM481.682 149.52C487.602 149.52 492.202 147.8 495.482 144.36C498.762 140.92 500.402 136.32 500.402 130.56V109.44C500.402 103.68 498.762 99.08 495.482 95.64C492.202 92.2 487.602 90.48 481.682 90.48C475.842 90.48 471.242 92.2 467.882 95.64C464.602 99.08 462.962 103.68 462.962 109.44V130.56C462.962 136.32 464.602 140.92 467.882 144.36C471.242 147.8 475.842 149.52 481.682 149.52Z" fill="white"/>
    <path d="M548.577 162V92.4H524.098V78H588.897V92.4H564.417V162H548.577Z" fill="white"/>
    <path d="M631.326 163.68C620.766 163.68 612.366 160.8 606.126 155.04C599.886 149.2 596.766 140.88 596.766 130.08V109.92C596.766 99.12 599.886 90.84 606.126 85.08C612.366 79.24 620.766 76.32 631.326 76.32C641.886 76.32 650.286 79.24 656.526 85.08C662.766 90.84 665.886 99.12 665.886 109.92V130.08C665.886 140.88 662.766 149.2 656.526 155.04C650.286 160.8 641.886 163.68 631.326 163.68ZM631.326 149.52C637.246 149.52 641.846 147.8 645.126 144.36C648.406 140.92 650.046 136.32 650.046 130.56V109.44C650.046 103.68 648.406 99.08 645.126 95.64C641.846 92.2 637.246 90.48 631.326 90.48C625.486 90.48 620.886 92.2 617.526 95.64C614.246 99.08 612.606 103.68 612.606 109.44V130.56C612.606 136.32 614.246 140.92 617.526 144.36C620.886 147.8 625.486 149.52 631.326 149.52Z" fill="white"/>
    <path d="M711.34 163.68C704.86 163.68 699.14 162.52 694.18 160.2C689.22 157.88 685.34 154.56 682.54 150.24C679.74 145.92 678.34 140.72 678.34 134.64V131.28H693.94V134.64C693.94 139.68 695.5 143.48 698.62 146.04C701.74 148.52 705.98 149.76 711.34 149.76C716.78 149.76 720.82 148.68 723.46 146.52C726.18 144.36 727.54 141.6 727.54 138.24C727.54 135.92 726.86 134.04 725.5 132.6C724.22 131.16 722.3 130 719.74 129.12C717.26 128.16 714.22 127.28 710.62 126.48L707.86 125.88C702.1 124.6 697.14 123 692.98 121.08C688.9 119.08 685.74 116.48 683.5 113.28C681.34 110.08 680.26 105.92 680.26 100.8C680.26 95.68 681.46 91.32 683.86 87.72C686.34 84.04 689.78 81.24 694.18 79.32C698.66 77.32 703.9 76.32 709.9 76.32C715.9 76.32 721.22 77.36 725.86 79.44C730.58 81.44 734.26 84.48 736.9 88.56C739.62 92.56 740.98 97.6 740.98 103.68V107.28H725.38V103.68C725.38 100.48 724.74 97.92 723.46 96C722.26 94 720.5 92.56 718.18 91.68C715.86 90.72 713.1 90.24 709.9 90.24C705.1 90.24 701.54 91.16 699.22 93C696.98 94.76 695.86 97.2 695.86 100.32C695.86 102.4 696.38 104.16 697.42 105.6C698.54 107.04 700.18 108.24 702.34 109.2C704.5 110.16 707.26 111 710.62 111.72L713.38 112.32C719.38 113.6 724.58 115.24 728.98 117.24C733.46 119.24 736.94 121.88 739.42 125.16C741.9 128.44 743.14 132.64 743.14 137.76C743.14 142.88 741.82 147.4 739.18 151.32C736.62 155.16 732.94 158.2 728.14 160.44C723.42 162.6 717.82 163.68 711.34 163.68Z" fill="white"/>
    <path d="M774.098 162V92.4H749.618V78H814.418V92.4H789.938V162H774.098Z" fill="white"/>
    <path d="M814.11 162L836.19 78H863.79L885.87 162H869.55L864.99 143.52H834.99L830.43 162H814.11ZM838.71 128.88H861.27L851.07 87.96H848.91L838.71 128.88Z" fill="white"/>
    <path d="M898.325 162V78H934.805C940.085 78 944.685 78.92 948.605 80.76C952.525 82.6 955.565 85.2 957.725 88.56C959.885 91.92 960.965 95.88 960.965 100.44V101.88C960.965 106.92 959.765 111 957.365 114.12C954.965 117.24 952.005 119.52 948.485 120.96V123.12C951.685 123.28 954.165 124.4 955.925 126.48C957.685 128.48 958.565 131.16 958.565 134.52V162H942.725V136.8C942.725 134.88 942.205 133.32 941.165 132.12C940.205 130.92 938.565 130.32 936.245 130.32H914.165V162H898.325ZM914.165 115.92H933.125C936.885 115.92 939.805 114.92 941.885 112.92C944.045 110.84 945.125 108.12 945.125 104.76V103.56C945.125 100.2 944.085 97.52 942.005 95.52C939.925 93.44 936.965 92.4 933.125 92.4H914.165V115.92Z" fill="white"/>
</svg>
