<svg width="595" height="595" viewBox="0 0 595 595" fill="none" xmlns="http://www.w3.org/2000/svg">
<style>
@media (prefers-color-scheme: dark) {
.a { fill: #87CCE8 }
.b { fill: #fff }
}
</style>
<path d="M297.225 1L554.435 149.5V446.5L297.225 595L40.0156 446.5V149.5L297.225 1Z" class="a" fill="#E1F3FA"/>
<path d="M332.916 568.969C348.44 557.974 365.691 538.406 411.964 519C429.653 511.582 453.109 506.101 443.5 489.5L415.558 443H411.964C411.964 458.188 361.372 470.5 298.964 470.5C236.556 470.5 185.964 458.188 185.964 443H184.155C168.019 470.88 172.653 463.677 152.498 498.5C147.529 507.086 152.649 510.134 169.403 517.993C223.403 543.323 284.241 603.443 332.916 568.969Z" fill="#87CCE8"/>
<path d="M353.5 154.5C353.5 166.926 329.1 177 299 177C268.9 177 244.5 166.926 244.5 154.5C244.5 142.074 268.9 132 299 132C329.1 132 353.5 142.074 353.5 154.5Z" fill="#B5E1F1"/>
<path d="M408.5 442.5C408.5 457.688 357.908 470 295.5 470C233.092 470 182.5 457.688 182.5 442.5C182.5 427.312 233.092 415 295.5 415C357.908 415 408.5 427.312 408.5 442.5Z" fill="#B5E1F1"/>
<path d="M180.141 210.688C180.809 209.004 183.191 209.004 183.859 210.688L206.994 269.02C207.199 269.535 207.607 269.942 208.123 270.144L266.753 293.138C268.446 293.802 268.446 296.198 266.753 296.862L208.123 319.856C207.607 320.058 207.199 320.465 206.994 320.98L183.859 379.312C183.191 380.996 180.809 380.996 180.141 379.312L157.006 320.98C156.802 320.465 156.393 320.058 155.877 319.856L97.2476 296.862C95.5545 296.198 95.5545 293.802 97.2476 293.138L155.877 270.144C156.393 269.942 156.802 269.535 157.006 269.02L180.141 210.688Z" fill="#87CCE8"/>
<path d="M399.141 162.688C399.809 161.004 402.191 161.004 402.859 162.688L425.994 221.02C426.199 221.535 426.607 221.942 427.123 222.144L485.753 245.138C487.446 245.802 487.446 248.198 485.753 248.862L427.123 271.856C426.607 272.058 426.199 272.465 425.994 272.98L402.859 331.312C402.191 332.996 399.809 332.996 399.141 331.312L376.006 272.98C375.802 272.465 375.393 272.058 374.877 271.856L316.248 248.862C314.555 248.198 314.555 245.802 316.248 245.138L374.877 222.144C375.393 221.942 375.802 221.535 376.006 221.02L399.141 162.688Z" fill="#87CCE8"/>
<path fill-rule="evenodd" clip-rule="evenodd" d="M255.093 151.711C253.33 153.469 253.159 154.574 253.159 155C253.159 155.426 253.33 156.531 255.093 158.289C256.886 160.079 259.886 162.059 264.233 163.893C272.893 167.548 285.413 170 299.659 170C313.906 170 326.426 167.548 335.086 163.893C339.432 162.059 342.432 160.079 344.226 158.289C345.989 156.531 346.159 155.426 346.159 155C346.159 154.574 345.989 153.469 344.226 151.711C342.432 149.921 339.432 147.941 335.086 146.107C326.426 142.452 313.906 140 299.659 140C285.413 140 272.893 142.452 264.233 146.107C259.886 147.941 256.886 149.921 255.093 151.711ZM258.012 131.366C269.076 126.696 283.806 124 299.659 124C315.513 124 330.242 126.696 341.307 131.366C346.824 133.694 351.805 136.671 355.527 140.384C359.174 144.023 361.996 148.796 362.152 154.5H362.305V216.373L369.254 213.648L391.429 157.738C394.767 149.32 406.681 149.32 410.02 157.738L432.194 213.648L488.398 235.69C496.862 239.01 496.863 250.99 488.398 254.31L432.194 276.352L410.02 332.262C406.681 340.68 394.767 340.679 391.429 332.262L369.254 276.352L362.305 273.627V335.906L453.65 493.73L439.803 501.745L413.311 455.974C411.279 457.833 408.989 459.379 406.8 460.638C400.141 464.47 391.038 467.65 380.485 470.219C359.254 475.385 330.339 478.5 298.69 478.5C267.042 478.5 238.127 475.385 216.895 470.219C206.342 467.65 197.239 464.47 190.581 460.638C188.562 459.477 186.458 458.073 184.55 456.404L157.287 503.507L143.439 495.493L237.089 333.688V318.374L214.195 327.352L192.021 383.262C188.682 391.68 176.768 391.679 173.43 383.262L151.255 327.352L95.052 305.31C86.5869 301.99 86.5868 290.01 95.052 286.69L151.255 264.648L173.43 208.738C176.768 200.32 188.682 200.32 192.021 208.738L214.195 264.648L237.089 273.626V154.5H237.166C237.323 148.796 240.145 144.023 243.792 140.384C247.514 136.671 252.495 133.694 258.012 131.366ZM253.089 176.296V279.901L270.399 286.69C278.864 290.01 278.864 301.99 270.399 305.31L253.089 312.098V337.985L206.836 417.899C209.848 416.965 213.036 416.092 216.368 415.281C237.6 410.115 266.515 407 298.163 407C329.812 407 358.727 410.115 379.958 415.281C384.11 416.292 388.037 417.397 391.679 418.599L346.305 340.203V267.352L313.051 254.31C304.586 250.99 304.586 239.01 313.051 235.69L346.305 222.648V176.256C344.706 177.114 343.033 177.906 341.307 178.634C330.242 183.304 315.513 186 299.659 186C283.806 186 269.076 183.304 258.012 178.634C256.313 177.917 254.665 177.139 253.089 176.296ZM194.498 443.827C195.224 444.469 196.335 445.293 198.033 446.27C202.811 449.019 210.256 451.764 220.152 454.172C239.819 458.958 267.404 462 298.163 462C328.923 462 356.508 458.958 376.175 454.172C386.071 451.764 393.516 449.019 398.293 446.27C401.63 444.351 402.7 443.021 403.033 442.5C402.7 441.979 401.63 440.649 398.293 438.73C393.516 435.981 386.071 433.236 376.175 430.828C356.508 426.042 328.923 423 298.163 423C267.404 423 239.819 426.042 220.152 430.828C210.256 433.236 202.811 435.981 198.033 438.73C195.51 440.182 194.282 441.296 193.69 441.978V442.772C193.733 442.853 193.905 443.218 194.498 443.827ZM400.724 177.699L383.166 221.969C382.145 224.544 380.101 226.58 377.522 227.592L333.135 245L377.522 262.408C380.101 263.42 382.145 265.456 383.167 268.031L400.724 312.301L418.282 268.031C419.303 265.456 421.347 263.42 423.926 262.408L468.313 245L423.926 227.592C421.347 226.58 419.303 224.544 418.282 221.969L400.724 177.699ZM182.725 228.699L165.168 272.969C164.146 275.544 162.102 277.58 159.523 278.592L115.136 296L159.523 313.408C162.102 314.42 164.146 316.456 165.168 319.031L182.725 363.301L200.283 319.031C201.304 316.456 203.348 314.42 205.928 313.408L250.314 296L205.928 278.592C203.348 277.58 201.304 275.544 200.283 272.969L182.725 228.699Z" fill="#001A72"/>
<path fill-rule="evenodd" clip-rule="evenodd" d="M297.225 19.4752L56.0156 158.738V437.262L297.225 576.525L538.435 437.262V158.738L297.225 19.4752ZM554.435 149.5L297.225 1L40.0156 149.5V446.5L297.225 595L554.435 446.5V149.5Z" class="b" fill="#001A72"/>
</svg>
